<svg width="34" height="34" viewBox="0 0 34 34" fill="none" xmlns="http://www.w3.org/2000/svg">
<path d="M31.3246 9.163L20.6996 3.31925C20.5427 3.23294 20.3666 3.18768 20.1875 3.18768C20.0084 3.18768 19.8323 3.23294 19.6754 3.31925L9.05038 9.163C8.88379 9.25472 8.74487 9.38947 8.64812 9.55319C8.55137 9.7169 8.50033 9.90358 8.50033 10.0938C8.50033 10.2839 8.55137 10.4706 8.64812 10.6343C8.74487 10.798 8.88379 10.9328 9.05038 11.0245L19.125 16.5654V27.9544L15.8993 26.18L14.875 28.0404L19.6754 30.6807C19.8323 30.7671 20.0084 30.8123 20.1875 30.8123C20.3666 30.8123 20.5427 30.7671 20.6996 30.6807L31.3246 24.837C31.4913 24.7453 31.6303 24.6106 31.7271 24.4469C31.8239 24.2832 31.875 24.0965 31.875 23.9062V10.0938C31.875 9.90355 31.8239 9.71685 31.7271 9.55313C31.6303 9.38941 31.4913 9.25468 31.3246 9.163ZM20.1875 5.46338L28.6078 10.0938L20.1875 14.7241L11.7672 10.0938L20.1875 5.46338ZM29.75 23.2783L21.25 27.9533V16.5644L29.75 11.8894V23.2783Z" fill="white"/>
<path d="M10.625 17H2.125V14.875H10.625V17ZM12.75 25.5H4.25V23.375H12.75V25.5ZM14.875 21.25H6.375V19.125H14.875V21.25Z" fill="white"/>
</svg>
